<svg width="20" height="18" viewBox="0 0 20 18" fill="none" xmlns="http://www.w3.org/2000/svg">
<path d="M15.5 7.25C15.5 6.23892 14.6778 5.41667 13.6667 5.41667H12.3522L10.1357 1.72342C9.97233 1.45257 9.74195 1.22837 9.46674 1.07247C9.19154 0.916562 8.88081 0.834204 8.56451 0.833336H3.58334V2.66667H8.56451L10.2145 5.41667H2.66668C1.65559 5.41667 0.833344 6.23892 0.833344 7.25V15.5C0.833344 16.5111 1.65559 17.3333 2.66668 17.3333H13.6667C14.6778 17.3333 15.5 16.5111 15.5 15.5V12.75L19.1667 14.5833V8.16667L15.5 10V7.25ZM9.08334 14.5833H3.58334V12.75H9.08334V14.5833Z" fill="#D8D8D8"/>
</svg>
