<svg width="22" height="17" viewBox="0 0 22 17" fill="none" xmlns="http://www.w3.org/2000/svg">
<path d="M21.0667 3.26001C21.0046 3.17933 20.9248 3.11395 20.8335 3.06888C20.7422 3.02381 20.6418 3.00025 20.54 3.00001H5.14001L4.84001 2.04667C4.80706 1.94431 4.74983 1.85144 4.67321 1.77599C4.5966 1.70053 4.50286 1.64473 4.40001 1.61334L1.66668 0.773341C1.58263 0.747514 1.49432 0.738494 1.40679 0.746796C1.31926 0.755099 1.23422 0.78056 1.15653 0.821728C0.999623 0.904869 0.882172 1.04694 0.830013 1.21667C0.777853 1.38641 0.795259 1.56992 0.8784 1.72682C0.961541 1.88373 1.10361 2.00118 1.27335 2.05334L3.66668 2.78667L6.72001 12.4333L5.63335 13.3267L5.54668 13.4133C5.27794 13.7245 5.12569 14.1194 5.11596 14.5304C5.10623 14.9415 5.23963 15.3431 5.49335 15.6667C5.67505 15.8876 5.90595 16.063 6.16757 16.1788C6.42919 16.2946 6.71427 16.3475 7.00001 16.3333H18.1267C18.3035 16.3333 18.4731 16.2631 18.5981 16.1381C18.7231 16.0131 18.7933 15.8435 18.7933 15.6667C18.7933 15.4899 18.7231 15.3203 18.5981 15.1953C18.4731 15.0702 18.3035 15 18.1267 15H6.89335C6.81658 14.9974 6.74178 14.975 6.67618 14.935C6.61059 14.8951 6.55641 14.8389 6.51888 14.7718C6.48134 14.7048 6.46173 14.6293 6.46193 14.5524C6.46213 14.4756 6.48213 14.4002 6.52001 14.3333L8.12668 13H18.4133C18.5656 13.0044 18.7148 12.9566 18.8361 12.8644C18.9574 12.7722 19.0435 12.6413 19.08 12.4933L21.2133 3.82667C21.2336 3.72729 21.2309 3.62458 21.2055 3.52638C21.1801 3.42818 21.1326 3.33708 21.0667 3.26001Z" fill="#D8D8D8"/>
</svg>
