<svg width="18" height="18" viewBox="0 0 18 18" fill="none" xmlns="http://www.w3.org/2000/svg">
<path d="M0 8.73031C0 3.71376 3.92963 0 9 0C14.0704 0 18 3.71376 18 8.73031C18 13.7469 14.0704 17.4606 9 17.4606C8.08875 17.4606 7.21575 17.3402 6.3945 17.1152C6.23526 17.0709 6.06561 17.0828 5.91412 17.149L4.12762 17.9388C4.01973 17.9864 3.90179 18.0067 3.78418 17.9981C3.66657 17.9894 3.55289 17.952 3.45313 17.8891C3.35336 17.8262 3.27057 17.7398 3.21202 17.6374C3.15348 17.535 3.12098 17.4199 3.11737 17.302L3.06787 15.7011C3.06446 15.6036 3.04125 15.5079 2.99967 15.4197C2.95809 15.3315 2.899 15.2527 2.826 15.188C1.0755 13.622 0 11.3539 0 8.73031ZM6.23925 7.08887L3.5955 11.283C3.34238 11.6858 3.83625 12.1392 4.21537 11.8523L7.056 9.69672C7.14943 9.62575 7.26343 9.58714 7.38075 9.58674C7.49807 9.58633 7.61233 9.62415 7.70625 9.69446L9.80888 11.2718C9.95806 11.3836 10.1288 11.4634 10.3103 11.506C10.4919 11.5486 10.6803 11.5532 10.8637 11.5193C11.0471 11.4855 11.2214 11.4141 11.3758 11.3095C11.5302 11.2049 11.6613 11.0695 11.7608 10.9118L14.4045 6.71761C14.6587 6.31485 14.1638 5.86146 13.7846 6.14834L10.944 8.30392C10.8506 8.37488 10.7366 8.41349 10.6193 8.41389C10.5019 8.4143 10.3877 8.37648 10.2937 8.30617L8.19112 6.72774C8.04194 6.61586 7.87119 6.5361 7.68965 6.49349C7.50811 6.45088 7.31971 6.44634 7.13633 6.48017C6.95295 6.51399 6.77856 6.58544 6.62417 6.69001C6.46977 6.79458 6.33871 6.93001 6.23925 7.08775V7.08887Z" fill="#0C88EF"/>
</svg>
