<svg width="16" height="16" viewBox="0 0 16 16" fill="none" xmlns="http://www.w3.org/2000/svg">
<path d="M8 0C10.1217 0 12.1566 0.842855 13.6569 2.34315C15.1571 3.84344 16 5.87827 16 8C16 10.1217 15.1571 12.1566 13.6569 13.6569C12.1566 15.1571 10.1217 16 8 16C5.87827 16 3.84344 15.1571 2.34315 13.6569C0.842855 12.1566 0 10.1217 0 8C0 5.87827 0.842855 3.84344 2.34315 2.34315C3.84344 0.842855 5.87827 0 8 0ZM5.155 10.427C5.10871 10.3804 5.05369 10.3433 4.99308 10.318C4.93247 10.2926 4.86747 10.2795 4.80177 10.2792C4.73607 10.279 4.67097 10.2917 4.61019 10.3166C4.5494 10.3416 4.49412 10.3782 4.4475 10.4245C4.40088 10.4708 4.36384 10.5258 4.33848 10.5864C4.31312 10.647 4.29995 10.712 4.29972 10.7777C4.29949 10.8434 4.3122 10.9085 4.33713 10.9693C4.36205 11.0301 4.39871 11.0854 4.445 11.132C5.35129 12.044 6.57349 12.5728 7.85873 12.6089C9.14398 12.645 10.3939 12.1857 11.35 11.326L11.555 11.132L11.612 11.062C11.6781 10.9655 11.7082 10.8489 11.6972 10.7324C11.6862 10.616 11.6347 10.5071 11.5517 10.4247C11.4687 10.3423 11.3595 10.2916 11.2429 10.2814C11.1264 10.2712 11.01 10.3022 10.914 10.369L10.845 10.427L10.667 10.597C9.90072 11.2788 8.90235 11.6411 7.87715 11.6095C6.85195 11.5779 5.87781 11.1547 5.155 10.427ZM10.5 5.5C10.2348 5.5 9.98043 5.60536 9.79289 5.79289C9.60536 5.98043 9.5 6.23478 9.5 6.5C9.5 6.76522 9.60536 7.01957 9.79289 7.20711C9.98043 7.39464 10.2348 7.5 10.5 7.5C10.7652 7.5 11.0196 7.39464 11.2071 7.20711C11.3946 7.01957 11.5 6.76522 11.5 6.5C11.5 6.23478 11.3946 5.98043 11.2071 5.79289C11.0196 5.60536 10.7652 5.5 10.5 5.5ZM5.5 5.5C5.23478 5.5 4.98043 5.60536 4.79289 5.79289C4.60536 5.98043 4.5 6.23478 4.5 6.5C4.5 6.76522 4.60536 7.01957 4.79289 7.20711C4.98043 7.39464 5.23478 7.5 5.5 7.5C5.76522 7.5 6.01957 7.39464 6.20711 7.20711C6.39464 7.01957 6.5 6.76522 6.5 6.5C6.5 6.23478 6.39464 5.98043 6.20711 5.79289C6.01957 5.60536 5.76522 5.5 5.5 5.5Z" fill="#D8D8D8"/>
</svg>
