<svg width="19" height="15" viewBox="0 0 19 15" fill="none" xmlns="http://www.w3.org/2000/svg">
<path d="M9.50146 3.57143C9.50146 4.51863 9.11645 5.42704 8.43111 6.09681C7.74578 6.76658 6.81626 7.14286 5.84705 7.14286C4.87784 7.14286 3.94833 6.76658 3.263 6.09681C2.57766 5.42704 2.19265 4.51863 2.19265 3.57143C2.19265 2.62423 2.57766 1.71582 3.263 1.04605C3.94833 0.376274 4.87784 0 5.84705 0C6.81626 0 7.74578 0.376274 8.43111 1.04605C9.11645 1.71582 9.50146 2.62423 9.50146 3.57143ZM14.6176 7.14286C15.393 7.14286 16.1366 6.84184 16.6849 6.30602C17.2331 5.7702 17.5412 5.04348 17.5412 4.28571C17.5412 3.52795 17.2331 2.80123 16.6849 2.26541C16.1366 1.72959 15.393 1.42857 14.6176 1.42857C13.8423 1.42857 13.0987 1.72959 12.5504 2.26541C12.0021 2.80123 11.6941 3.52795 11.6941 4.28571C11.6941 5.04348 12.0021 5.7702 12.5504 6.30602C13.0987 6.84184 13.8423 7.14286 14.6176 7.14286ZM13.1559 10.8486V10.7143C13.1569 9.94137 12.9004 9.18914 12.425 8.57143H17.2093C18.1975 8.57143 19 9.35429 19 10.3214C19 10.3214 19 13.5714 14.6147 13.5714C13.7406 13.5714 13.0404 13.4429 12.4805 13.2357C12.8297 12.6104 13.0516 11.9249 13.1339 11.2171C13.1427 11.1286 13.1486 11.0529 13.1515 10.99L13.1559 10.8471V10.8486ZM11.6941 10.7143C11.6941 10.146 11.4631 9.60092 11.0519 9.19906C10.6407 8.79719 10.083 8.57143 9.50146 8.57143H2.19265C1.61112 8.57143 1.05341 8.79719 0.642211 9.19906C0.23101 9.60092 0 10.146 0 10.7143V10.8214C0 10.8214 0 15 5.84705 15C11.4193 15 11.681 11.2057 11.6941 10.8486V10.7143Z" fill="#D8D8D8"/>
</svg>
