<svg width="18" height="18" viewBox="0 0 18 18" fill="none" xmlns="http://www.w3.org/2000/svg">
<g clip-path="url(#clip0_162_445)">
<path d="M14.5027 14.4042C11.7281 17.1787 6.99469 18.4317 3.17672 14.6123C-0.64125 10.793 0.610312 6.06093 3.38484 3.2864C4.92187 1.74515 6.85547 0.831088 8.83406 0.70312C10.9927 0.573745 13.0303 1.39921 14.7108 3.07968C16.3912 4.76015 17.2069 6.78796 17.0775 8.94656C16.9481 10.9237 16.0312 12.8728 14.5027 14.4042Z" fill="url(#paint0_radial_162_445)"/>
<path d="M10.4062 0.779053C11.79 1.1039 13.0781 1.8464 14.2186 2.97843C15.9061 4.66593 16.7147 6.68812 16.5853 8.8453C16.4531 10.8281 15.5362 12.773 14.0048 14.3044C12.209 16.1001 9.59202 17.2575 6.9328 16.8145C9.75936 17.5008 12.5944 16.3125 14.5026 14.4042C16.0312 12.8728 16.9481 10.9237 17.0775 8.94515C17.2069 6.78655 16.3912 4.75874 14.7108 3.07827C13.4437 1.81124 11.9728 1.03077 10.4062 0.779053Z" fill="#EB8F00"/>
<path d="M13.5998 5.56308C13.2103 5.45058 12.7969 5.64323 12.6323 6.01448C11.9081 7.33161 10.9983 8.53785 9.93094 9.5962C8.87344 10.6635 7.66688 11.5734 6.34922 12.2962C6.17049 12.3766 6.02657 12.5185 5.94372 12.6961C5.86086 12.8737 5.84457 13.0751 5.89781 13.2637C6.01313 13.6504 6.39984 13.8403 6.76406 13.9767C8.80453 14.7403 11.0503 14.1721 12.7758 12.4565L12.7927 12.441C14.5069 10.7156 15.075 8.46979 14.3114 6.42792C14.1764 6.06511 13.9852 5.67698 13.5998 5.56308Z" fill="#422B0D"/>
<path d="M12.6675 12.3159L12.6591 12.3244V12.3328L12.6675 12.3159ZM10.0702 9.70312L10.0547 9.71719L10.0406 9.73266L10.0702 9.70312Z" fill="#422B0D"/>
<path d="M10.0702 9.70312L10.0547 9.71719L10.0406 9.73266L10.0702 9.70312ZM12.6675 12.3159L12.6591 12.3244V12.3328L12.6675 12.3159Z" fill="#422B0D"/>
<path d="M13.9781 10.4597C13.9064 10.4597 13.8375 10.4696 13.77 10.4752C13.0064 10.5244 12.2892 10.8577 11.759 11.4089C11.1909 11.9546 10.8309 12.683 10.7409 13.4663C10.7325 13.5352 10.7241 13.6069 10.7198 13.6744C10.7156 13.7419 10.7311 13.7982 10.7395 13.8544C11.4998 13.5201 12.1905 13.0459 12.7758 12.4566L12.7926 12.4411C13.3565 11.88 13.815 11.2219 14.1455 10.4991C14.0906 10.4822 14.0344 10.4696 13.9781 10.4597Z" fill="#ED7770"/>
<path d="M12.6323 6.01448C11.9081 7.33161 10.9983 8.53785 9.93094 9.5962C8.87344 10.6635 7.66688 11.5734 6.34922 12.2962C6.17049 12.3766 6.02657 12.5185 5.94372 12.6961C5.86086 12.8737 5.84457 13.0751 5.89781 13.2637C5.91609 13.3214 5.94 13.3762 5.97094 13.4282C6.02859 13.4085 6.08344 13.386 6.13828 13.3593C7.93439 12.7636 9.56211 11.7473 10.8858 10.395C12.1836 9.12556 13.174 7.57624 13.7813 5.86542C13.8052 5.80776 13.8263 5.7487 13.8445 5.68823C13.7714 5.63198 13.6884 5.58839 13.5998 5.56308C13.2103 5.45058 12.7969 5.64323 12.6323 6.01448Z" fill="white"/>
<path d="M10.0406 9.80724C10.8661 9.00849 11.4061 8.2238 12.0558 7.26755C12.2175 7.02849 12.3708 6.7838 12.5184 6.53208L12.6253 6.34224C12.6534 6.29302 12.6844 6.24521 12.7209 6.20161C12.7856 6.12146 12.8686 6.05958 12.9642 6.02021C13.1864 5.93864 13.4297 5.93442 13.6547 6.00896C14.1117 6.22833 14.5097 7.01021 14.4591 6.86396C14.4591 6.86396 14.3761 6.5363 14.3733 6.53208C14.2608 6.25083 14.1455 5.93302 13.8544 5.68833C13.7014 5.57162 13.5198 5.49849 13.3286 5.4767C13.1375 5.45492 12.944 5.48528 12.7687 5.56458C12.6019 5.64031 12.4568 5.75687 12.3469 5.90349C12.2934 5.97099 12.2456 6.04411 12.2062 6.12146L12.112 6.30708C11.9812 6.55317 11.842 6.79646 11.6901 7.03411C11.1501 7.93552 10.5131 8.77505 9.7903 9.53724L9.7678 9.55974C9.02163 10.274 8.1981 10.9027 7.31249 11.4343C7.07343 11.5749 6.83155 11.7155 6.58546 11.8561L6.39421 11.9532C6.31687 11.9925 6.24374 12.039 6.17624 12.0938C6.02883 12.2033 5.91171 12.3484 5.83593 12.5157C5.76195 12.6899 5.73597 12.8808 5.7607 13.0685C5.78543 13.2562 5.85996 13.4339 5.97655 13.583C6.35483 14.0766 7.21827 14.1455 7.22249 14.1455C7.36312 14.1961 6.51093 13.8333 6.29155 13.3763C6.21421 13.1594 6.21421 12.9224 6.29155 12.7055C6.32812 12.6071 6.38858 12.5199 6.46874 12.4524C6.51233 12.4158 6.56015 12.3849 6.60937 12.3582L6.79921 12.2513C7.04952 12.1107 7.29421 11.949 7.53468 11.7872C8.48952 11.1375 9.22218 10.6622 10.0167 9.82974" fill="#EB8F00"/>
<path d="M16.1902 4.40721C16.3589 5.48158 15.3717 6.49971 14.4759 6.62064C13.8459 6.70502 13.1428 6.56017 12.0853 6.2972C11.9292 6.26767 11.7703 6.22127 11.5959 6.17767C10.9519 5.99908 10.3191 5.78392 9.69891 5.53361C9.64017 5.51203 9.59147 5.46953 9.56215 5.41425C9.53282 5.35897 9.52494 5.29481 9.54 5.23408C9.55828 5.18064 9.59485 5.13424 9.64125 5.1033C10.1157 4.61695 10.649 4.19179 11.2289 3.83767C12.6928 2.93205 13.2497 2.80971 13.8797 2.72533C14.7488 2.5833 16.0073 3.23439 16.1902 4.40721Z" fill="url(#paint1_radial_162_445)"/>
<path d="M14.8388 3.40171C15.248 3.59577 15.2508 4.15687 14.6264 4.24546C14.2256 4.2989 12.1627 4.49296 12.4031 4.11187C12.7969 3.48609 14.2608 3.12749 14.8388 3.40171Z" fill="#81D4FA"/>
<path d="M10.2164 4.37344L8.91845 5.53782L9.39938 3.6886C9.4036 3.6661 9.40782 3.645 9.40923 3.6225C9.42189 3.54622 9.41938 3.46819 9.40184 3.39288C9.3843 3.31757 9.35207 3.24646 9.307 3.18363C9.26194 3.1208 9.20491 3.06747 9.1392 3.02671C9.07349 2.98595 9.00039 2.95856 8.92407 2.9461C8.84813 2.93344 8.76938 2.93625 8.69345 2.95313C8.52654 2.99907 8.3778 3.09522 8.26737 3.22854C8.15694 3.36186 8.09017 3.5259 8.0761 3.69844C7.99595 4.51547 7.80751 6.44063 7.73438 7.19016C7.71188 7.26469 7.75407 7.34344 7.8286 7.36594C7.87782 7.38141 7.93126 7.36735 7.96782 7.33079L10.8774 5.49141L10.935 5.45063C11.2866 5.18063 11.3724 4.66594 11.0883 4.36782C10.8717 4.14 10.4977 4.15829 10.2164 4.37344Z" fill="#422B0D"/>
<path d="M3.64218 14.625C3.59156 14.0189 3.59015 13.4733 4.13718 11.9166C4.35093 11.3006 4.64062 10.7142 4.99921 10.17C5.0189 10.1194 5.05546 10.0772 5.10187 10.0491C5.21296 9.99281 5.34796 10.0308 5.41546 10.1348C5.77687 10.6636 6.10734 11.212 6.40828 11.7773C6.48421 11.932 6.56015 12.0698 6.62062 12.2105C7.08468 13.1512 7.36453 13.7798 7.41515 14.3859C7.48687 15.248 6.73734 16.3814 5.69812 16.4461C4.56609 16.5108 3.69562 15.4687 3.64218 14.625Z" fill="url(#paint2_radial_162_445)"/>
<path d="M4.64064 12.9614C4.94579 12.6563 5.18908 14.625 5.22142 15.0117C5.27064 15.6136 4.7447 15.7261 4.48033 15.3844C4.10345 14.9063 4.13861 13.4564 4.64064 12.9614Z" fill="#81D4FA"/>
<path d="M4.24264 11.0756L5.1792 9.60325L3.43405 10.3823L3.37499 10.4062C3.06702 10.5103 2.73233 10.3458 2.62686 10.0378C2.60155 9.96466 2.5917 9.88732 2.59733 9.80997C2.61503 9.63766 2.68542 9.47501 2.79891 9.34415C2.9124 9.2133 3.06348 9.12061 3.23155 9.07872L6.60936 8.16325C6.67967 8.1295 6.76405 8.15903 6.7978 8.22935C6.8203 8.27575 6.81608 8.3306 6.78514 8.37138L5.45342 11.5425C5.44498 11.565 5.43514 11.5861 5.42389 11.6072C5.21577 11.9981 4.72077 12.1697 4.38045 11.9362C4.1203 11.759 4.07811 11.3906 4.24264 11.0756Z" fill="#422B0D"/>
</g>
<defs>
<radialGradient id="paint0_radial_162_445" cx="0" cy="0" r="1" gradientUnits="userSpaceOnUse" gradientTransform="translate(8.73637 8.58556) rotate(-45) scale(8.04277)">
<stop offset="0.5" stop-color="#FDE030"/>
<stop offset="0.92" stop-color="#F7C02B"/>
<stop offset="1" stop-color="#F4A223"/>
</radialGradient>
<radialGradient id="paint1_radial_162_445" cx="0" cy="0" r="1" gradientUnits="userSpaceOnUse" gradientTransform="translate(10.8962 4.2896) rotate(-97.4809) scale(4.43708 6.86256)">
<stop offset="0.46" stop-color="#29B6F6"/>
<stop offset="1" stop-color="#1E88E5"/>
</radialGradient>
<radialGradient id="paint2_radial_162_445" cx="0" cy="0" r="1" gradientUnits="userSpaceOnUse" gradientTransform="translate(5.54655 10.363) rotate(175.426) scale(4.26891 6.53401)">
<stop offset="0.46" stop-color="#29B6F6"/>
<stop offset="1" stop-color="#1E88E5"/>
</radialGradient>
<clipPath id="clip0_162_445">
<rect width="18" height="18" fill="white"/>
</clipPath>
</defs>
</svg>
