<svg width="16" height="16" viewBox="0 0 16 16" fill="none" xmlns="http://www.w3.org/2000/svg">
<path d="M10.69 15.2087C9.61125 15.1999 7.9925 15.1574 6.4 15.0074C5.30375 14.9037 4.17125 14.7399 3.31125 14.2524C3.06875 14.1149 2.80375 14.0812 2.56875 14.0524C2.46875 14.0399 2.375 14.0287 2.295 14.0099C1.685 13.8662 1.25875 13.3387 1.25625 12.7274L1.2475 8.6337C1.24625 8.06745 1.65 7.5937 2.20875 7.5062C2.21875 7.50495 2.2275 7.50245 2.2375 7.49995C2.30625 7.47745 3.94875 6.94245 5.18625 5.97495C5.76875 5.51995 6.2675 4.8187 6.52125 4.09995C6.77375 3.3837 6.7725 2.60245 6.77125 1.97495C6.77125 1.56995 6.77 1.0662 6.88 0.992446C7.1475 0.816196 7.4425 0.726196 7.75625 0.726196C8.72125 0.726196 9.70625 1.60745 9.745 2.50495C9.7725 3.12745 9.56375 3.86245 9.3625 4.57245C9.125 5.4137 8.91875 6.13995 9.105 6.6337C9.1325 6.70745 9.2025 6.75495 9.28 6.75495L10.1912 6.7237H10.2C11.22 6.7237 12.05 7.5537 12.0513 8.57245L12.0575 13.8487C12.0575 14.2124 11.9175 14.5537 11.66 14.8099C11.5341 14.9366 11.3843 15.0371 11.2193 15.1056C11.0543 15.174 10.8774 15.2091 10.6987 15.2087H10.69Z" fill="url(#paint0_radial_162_325)"/>
<path d="M7.75625 0.913696C8.61375 0.913696 9.5225 1.7212 9.5575 2.51245C9.58375 3.10495 9.38 3.82495 9.1825 4.5212C8.935 5.3937 8.7225 6.14745 8.93 6.6987C8.95692 6.77006 9.00496 6.83151 9.06773 6.87484C9.13049 6.91817 9.20498 6.94132 9.28125 6.9412H9.295L10.195 6.90995H10.2025C11.1188 6.90995 11.865 7.65495 11.8663 8.57245L11.8725 13.8487C11.8725 14.1612 11.7512 14.4562 11.53 14.6774C11.3088 14.8987 11.015 15.0212 10.7013 15.0212H10.6912C9.61625 15.0124 8.0025 14.9699 6.4175 14.8212C5.3425 14.7199 4.2325 14.5599 3.40375 14.0899C3.12875 13.9337 2.83125 13.8974 2.5925 13.8674C2.4975 13.8562 2.40875 13.8449 2.33875 13.8274C1.81375 13.7037 1.44625 13.2512 1.445 12.7274L1.435 8.6337C1.43375 8.1612 1.77125 7.76495 2.2375 7.69245C2.25625 7.68995 2.27625 7.68495 2.29375 7.6787C2.36375 7.6562 4.03625 7.10995 5.3 6.12245C5.90875 5.6462 6.43125 4.9137 6.69625 4.16245C6.96 3.4162 6.95875 2.61745 6.9575 1.97495C6.9575 1.66995 6.95625 1.25745 7.00875 1.13245C7.23154 0.988813 7.49118 0.912831 7.75625 0.913696ZM7.75625 0.538696C7.425 0.538696 7.09 0.628696 6.77625 0.836196C6.37125 1.1037 6.81 2.7137 6.34375 4.0362C6.06375 4.82995 5.53 5.46745 5.07 5.8262C3.845 6.7837 2.18 7.3212 2.18 7.3212C1.53375 7.42245 1.05875 7.97995 1.06 8.63495L1.07 12.7287C1.0725 13.4337 1.56625 14.0299 2.2525 14.1924C2.53 14.2574 2.90875 14.2399 3.21875 14.4162C4.0475 14.8862 5.11 15.0737 6.3825 15.1937C7.9575 15.3424 9.5575 15.3862 10.6888 15.3962H10.7013C11.555 15.3962 12.2488 14.7037 12.2475 13.8487L12.2413 8.57245C12.24 7.4462 11.3263 6.5362 10.2025 6.5362H10.1875L9.2825 6.56745C8.97 5.73745 9.99375 3.86995 9.93375 2.4962C9.89 1.51995 8.84875 0.538696 7.75625 0.538696Z" fill="#E6B77E"/>
<path d="M8.265 7.81254C8.5 8.43754 8.5025 9.41254 8.265 10.015C7.92125 10.885 7.08 11.6463 6.10875 11.78C5.87125 11.8125 6.0125 12.0313 6.24875 11.9988C7.3 11.8538 8.7225 11.4275 9.0925 10.4838C10.1075 7.89004 8.92 6.53129 8.39 6.93629C8.135 7.13379 8.1325 7.45879 8.265 7.81254Z" fill="#E6B77E"/>
<path d="M10.785 8.73998C9.74 8.73998 8.48375 8.54623 8.43 7.61998C8.415 7.35498 8.495 7.13248 8.675 6.94123C9.14875 6.43873 10.3125 6.16248 11.9525 6.16248C12.5475 6.16248 12.9812 6.20123 12.9862 6.20123C12.9912 6.20123 12.9975 6.20248 13.0025 6.20248H13.0137C13.0312 6.20123 13.0475 6.20123 13.065 6.20123C13.5962 6.20123 14.04 6.67998 14.0762 7.29123C14.1137 7.92373 13.6975 8.46373 13.1487 8.49498C13.14 8.49498 13.13 8.49623 13.1212 8.49873C13.11 8.49998 11.9525 8.73998 10.785 8.73998Z" fill="url(#paint1_radial_162_325)"/>
<path d="M11.9537 6.34998C12.5387 6.34998 12.9662 6.38748 12.97 6.38748C12.9812 6.38873 12.9925 6.38873 13.0037 6.38873C13.0112 6.38873 13.0187 6.38873 13.025 6.38748C13.0387 6.38623 13.0525 6.38623 13.065 6.38623C13.4962 6.38623 13.8587 6.78748 13.8887 7.29873C13.92 7.82748 13.5825 8.27873 13.1375 8.30498C13.1187 8.30623 13.1 8.30873 13.0825 8.31248C13.0712 8.31498 11.93 8.55123 10.785 8.55123C10.12 8.55123 9.59249 8.47373 9.21874 8.32123C8.70499 8.11123 8.62874 7.81373 8.61749 7.60873C8.60499 7.39498 8.66749 7.22373 8.81249 7.06873C9.24374 6.61248 10.3887 6.34998 11.9537 6.34998ZM11.9537 5.97498C10.5262 5.97498 8.15874 6.19123 8.24249 7.63123C8.30374 8.67123 9.55874 8.92748 10.785 8.92748C11.9862 8.92748 13.16 8.68123 13.16 8.68123C13.8125 8.64248 14.3075 8.01498 14.2637 7.27873C14.2225 6.56623 13.6925 6.01248 13.0662 6.01248C13.045 6.01248 13.025 6.01248 13.0037 6.01373C13.0037 6.01373 12.565 5.97498 11.9537 5.97498Z" fill="#E6B77E"/>
<path d="M11.5687 11.1187C10.205 11.1187 8.57999 10.8899 8.57999 9.79745C8.57999 8.70495 10.205 8.4762 11.5687 8.4762C12.725 8.4762 13.7787 8.64495 13.7887 8.6462C13.7987 8.64745 13.8087 8.6487 13.8187 8.6487C14.37 8.6487 14.7537 9.2312 14.7537 9.7537C14.7537 10.3049 14.345 10.9449 13.8187 10.9449C13.8087 10.9449 13.7987 10.9462 13.7887 10.9474C13.7775 10.9499 12.7237 11.1187 11.5687 11.1187Z" fill="url(#paint2_radial_162_325)"/>
<path d="M11.5687 8.66504C12.7087 8.66504 13.7487 8.83129 13.7587 8.83254C13.7787 8.83629 13.7987 8.83754 13.8187 8.83754C14.2462 8.83754 14.5662 9.32254 14.5662 9.75504C14.5662 10.2063 14.2212 10.7588 13.8187 10.7588C13.7987 10.7588 13.7787 10.76 13.7587 10.7638C13.7487 10.765 12.7075 10.9313 11.5687 10.9313C10.715 10.9313 10.0362 10.8413 9.54999 10.6625C8.84874 10.405 8.76749 10.045 8.76749 9.79754C8.76749 9.54879 8.84874 9.19004 9.54999 8.93254C10.035 8.75504 10.715 8.66504 11.5687 8.66504ZM11.5687 8.29004C10.0775 8.29004 8.39249 8.56379 8.39249 9.79879C8.39249 11.0338 10.0762 11.3075 11.5687 11.3075C12.755 11.3075 13.8187 11.135 13.8187 11.135C14.4637 11.135 14.9412 10.3963 14.9412 9.75629C14.9412 9.11629 14.4637 8.46379 13.8187 8.46379C13.8187 8.46254 12.7537 8.29004 11.5687 8.29004Z" fill="#E6B77E"/>
<path d="M12.6075 15.2738C12.0812 15.2738 9.41499 15.2325 8.60749 14.4238C8.46624 14.2825 8.39874 14.13 8.39874 13.9575C8.40124 13.3013 9.52499 12.925 11.4812 12.925C12.1787 12.925 12.7187 12.975 12.725 12.975C12.73 12.975 12.7362 12.9763 12.7412 12.9763C13.0337 12.9775 13.31 13.0963 13.5162 13.3125C13.725 13.53 13.8387 13.82 13.8387 14.1275C13.8362 14.7588 13.3425 15.2713 12.7375 15.2713C12.7287 15.2738 12.685 15.2738 12.6075 15.2738Z" fill="url(#paint3_radial_162_325)"/>
<path d="M11.4825 13.1138C12.1687 13.1138 12.7025 13.1625 12.7075 13.1638C12.7188 13.165 12.73 13.165 12.7413 13.165C12.9825 13.1663 13.21 13.265 13.3813 13.4438C13.5563 13.6263 13.6525 13.87 13.6512 14.1288C13.65 14.6563 13.24 15.0863 12.7338 15.0863H12.725C12.7225 15.0863 12.68 15.0875 12.6062 15.0875C10.3375 15.0875 9.105 14.6588 8.74 14.2925C8.60125 14.1538 8.58625 14.0363 8.58625 13.96C8.58875 13.4375 9.6975 13.1138 11.4825 13.1138ZM11.4825 12.7388C10.1425 12.7388 8.215 12.9188 8.2125 13.9575C8.2075 15.39 11.875 15.4613 12.6075 15.4613C12.6888 15.4613 12.7338 15.46 12.7338 15.46H12.7375C13.4475 15.46 14.0238 14.865 14.0262 14.1288C14.0287 13.3913 13.4538 12.7913 12.7425 12.7888C12.7425 12.79 12.1962 12.7388 11.4825 12.7388Z" fill="#E6B77E"/>
<path d="M12.14 13.2901C11.0162 13.2901 8.40375 13.1626 8.40375 11.9813C8.40375 10.9888 10.2875 10.8413 11.4112 10.8413C12.405 10.8413 13.2612 10.9513 13.27 10.9526C13.2775 10.9538 13.2862 10.9538 13.2937 10.9538C13.815 10.9538 14.4225 11.2113 14.4225 11.9376C14.4225 12.6251 13.885 13.2501 13.2937 13.2501H13.2787C13.2737 13.2513 12.7925 13.2901 12.14 13.2901Z" fill="url(#paint4_radial_162_325)"/>
<path d="M11.4113 10.655V11.03C12.39 11.03 13.2375 11.1388 13.245 11.14C13.2612 11.1425 13.2775 11.1425 13.2937 11.1425C13.7487 11.1425 14.235 11.3513 14.235 11.9388C14.235 12.5175 13.7775 13.0638 13.2937 13.0638C13.2837 13.0638 13.2737 13.0638 13.2625 13.065C13.2575 13.065 12.7838 13.1038 12.1388 13.1038C11.4575 13.1038 10.4837 13.06 9.7125 12.855C8.96875 12.6563 8.59125 12.3625 8.59125 11.9838C8.59125 11.8675 8.59125 11.5138 9.38375 11.265C9.8775 11.11 10.5587 11.0313 11.41 11.0313L11.4113 10.655ZM11.4113 10.655C9.96625 10.655 8.21625 10.8825 8.21625 11.9825C8.21625 13.2788 10.6413 13.4788 12.14 13.4788C12.81 13.4788 13.2937 13.4388 13.2937 13.4388C13.9987 13.4388 14.61 12.71 14.61 11.9388C14.61 11.1675 13.9987 10.7675 13.2937 10.7675C13.2937 10.7675 12.4275 10.655 11.4113 10.655ZM3.47375 14.3625L2.875 12L2.625 14.125L3.47375 14.3625Z" fill="#E6B77E"/>
<defs>
<radialGradient id="paint0_radial_162_325" cx="0" cy="0" r="1" gradientUnits="userSpaceOnUse" gradientTransform="translate(6.47114 3.92507) rotate(90.1249) scale(10.8799 8.56575)">
<stop offset="0.6" stop-color="#F9DDBD"/>
<stop offset="1" stop-color="#EDC391"/>
</radialGradient>
<radialGradient id="paint1_radial_162_325" cx="0" cy="0" r="1" gradientUnits="userSpaceOnUse" gradientTransform="translate(12.8695 7.33704) rotate(176.727) scale(3.53396 1.72922)">
<stop offset="0.5" stop-color="#F9DDBD"/>
<stop offset="1" stop-color="#EDC391"/>
</radialGradient>
<radialGradient id="paint2_radial_162_325" cx="0" cy="0" r="1" gradientUnits="userSpaceOnUse" gradientTransform="translate(13.4267 9.76356) rotate(-179.937) scale(3.97728 1.59495)">
<stop offset="0.5" stop-color="#F9DDBD"/>
<stop offset="1" stop-color="#EDC391"/>
</radialGradient>
<radialGradient id="paint3_radial_162_325" cx="0" cy="0" r="1" gradientUnits="userSpaceOnUse" gradientTransform="translate(12.6599 14.0717) rotate(-179.726) scale(3.34015 1.73897)">
<stop offset="0.5" stop-color="#F9DDBD"/>
<stop offset="1" stop-color="#EDC391"/>
</radialGradient>
<radialGradient id="paint4_radial_162_325" cx="0" cy="0" r="1" gradientUnits="userSpaceOnUse" gradientTransform="translate(13.1356 12.0344) rotate(-179.934) scale(3.80549 1.58287)">
<stop offset="0.5" stop-color="#F9DDBD"/>
<stop offset="1" stop-color="#EDC391"/>
</radialGradient>
</defs>
</svg>
