<svg width="26" height="26" viewBox="0 0 26 26" fill="none" xmlns="http://www.w3.org/2000/svg">
<path d="M22.4936 13.551C22.9201 12.9873 23.1562 12.2967 23.1562 11.5781C23.1562 10.4381 22.5189 9.35898 21.4932 8.75722C21.2291 8.60232 20.9284 8.5208 20.6223 8.52109H14.5336L14.6859 5.40058C14.7215 4.64648 14.4549 3.93046 13.9369 3.38456C13.6827 3.1155 13.376 2.90141 13.0358 2.75555C12.6956 2.60969 12.3291 2.53514 11.959 2.53652C10.6387 2.53652 9.4707 3.42519 9.12031 4.69726L6.93926 12.5937H6.93164V23.4609H18.9236C19.1572 23.4609 19.3857 23.4152 19.5965 23.3238C20.8051 22.8084 21.5846 21.6277 21.5846 20.3176C21.5846 19.9976 21.5389 19.6828 21.4475 19.3781C21.874 18.8144 22.1102 18.1238 22.1102 17.4053C22.1102 17.0853 22.0645 16.7705 21.973 16.4658C22.3996 15.9021 22.6357 15.2115 22.6357 14.493C22.6307 14.173 22.585 13.8557 22.4936 13.551ZM2.84375 13.4062V22.6484C2.84375 23.0978 3.20684 23.4609 3.65625 23.4609H5.30664V12.5937H3.65625C3.20684 12.5937 2.84375 12.9568 2.84375 13.4062Z" fill="white"/>
</svg>
