<svg width="14" height="14" viewBox="0 0 14 14" fill="none" xmlns="http://www.w3.org/2000/svg">
<path d="M11.0833 11.0833H1.74999V4.08333C1.74999 3.7625 1.48749 3.5 1.16666 3.5C0.845828 3.5 0.583328 3.7625 0.583328 4.08333V11.0833C0.583328 11.725 1.10833 12.25 1.74999 12.25H11.0833C11.4042 12.25 11.6667 11.9875 11.6667 11.6667C11.6667 11.3458 11.4042 11.0833 11.0833 11.0833Z" fill="#D8D8D8"/>
<path d="M12.25 2.33333H8.16667L7.34417 1.51083C7.12251 1.28916 6.82501 1.16666 6.51584 1.16666H4.08334C3.44167 1.16666 2.92251 1.69166 2.92251 2.33333L2.91667 8.75C2.91667 9.39166 3.44167 9.91666 4.08334 9.91666H12.25C12.8917 9.91666 13.4167 9.39166 13.4167 8.75V3.5C13.4167 2.85833 12.8917 2.33333 12.25 2.33333ZM10.5 7.58333H5.83334C5.77917 7.58333 5.72608 7.56825 5.68 7.53977C5.63392 7.51129 5.59669 7.47055 5.57246 7.4221C5.54824 7.37365 5.53799 7.31942 5.54285 7.26547C5.54771 7.21152 5.56751 7.16 5.60001 7.11666L6.405 6.04916C6.52167 5.89166 6.755 5.89166 6.87167 6.04916L7.58334 7L8.87834 5.2675C8.99501 5.11 9.22834 5.11 9.34501 5.2675L10.7333 7.11666C10.7658 7.16 10.7856 7.21152 10.7905 7.26547C10.7954 7.31942 10.7851 7.37365 10.7609 7.4221C10.7367 7.47055 10.6994 7.51129 10.6533 7.53977C10.6073 7.56825 10.5542 7.58333 10.5 7.58333Z" fill="#D8D8D8"/>
</svg>
