<svg width="17" height="19" viewBox="0 0 17 19" fill="none" xmlns="http://www.w3.org/2000/svg">
<path d="M10.3813 0.894118C10.3291 0.641672 10.19 0.414782 9.98759 0.251849C9.7852 0.0889162 9.53193 -5.25631e-05 9.27067 2.32981e-08H1.13333C0.832755 2.32981e-08 0.544487 0.117752 0.331946 0.327351C0.119405 0.536951 0 0.821229 0 1.11765V17.8824C0 18.1788 0.119405 18.4631 0.331946 18.6726C0.544487 18.8822 0.832755 19 1.13333 19C1.43391 19 1.72218 18.8822 1.93472 18.6726C2.14726 18.4631 2.26667 18.1788 2.26667 17.8824V11.1765H8.61333L8.88533 12.5176C8.98733 13.0407 9.4554 13.4174 9.996 13.4118H15.8667C16.1672 13.4118 16.4555 13.294 16.6681 13.0844C16.8806 12.8748 17 12.5905 17 12.2941V3.35294C17 3.05652 16.8806 2.77224 16.6681 2.56265C16.4555 2.35305 16.1672 2.23529 15.8667 2.23529H10.6533L10.3813 0.894118Z" fill="#D8D8D8"/>
</svg>
