<svg width="20" height="16" viewBox="0 0 20 16" fill="none" xmlns="http://www.w3.org/2000/svg">
<path fill-rule="evenodd" clip-rule="evenodd" d="M3.56243 1.0463L16.4196 1.00002C16.758 0.998831 17.0934 1.06447 17.4064 1.19316C17.7194 1.32186 18.0039 1.51108 18.2437 1.74998C18.4834 1.98888 18.6736 2.27275 18.8034 2.58532C18.9332 2.89789 19 3.233 19 3.57144V10.0026C19 10.6846 18.7291 11.3386 18.2468 11.8209C17.7646 12.3031 17.1106 12.574 16.4286 12.574H3.57143C2.88944 12.574 2.23539 12.3031 1.75315 11.8209C1.27092 11.3386 1 10.6846 1 10.0026V3.61773C0.999996 2.9373 1.26968 2.28461 1.74997 1.80263C2.23026 1.32065 2.882 1.04868 3.56243 1.0463V1.0463Z" stroke="#D8D8D8" stroke-linecap="round" stroke-linejoin="round"/>
<path d="M12.529 6.27401L9.09998 3.70258C9.00447 3.63095 8.8909 3.58733 8.772 3.57661C8.6531 3.56589 8.53356 3.58849 8.42677 3.64188C8.31999 3.69527 8.23019 3.77734 8.16742 3.8789C8.10466 3.98046 8.07141 4.09748 8.07141 4.21687V9.35973C8.07141 9.47911 8.10466 9.59614 8.16742 9.6977C8.23019 9.79925 8.31999 9.88132 8.42677 9.93472C8.53356 9.98811 8.6531 10.0107 8.772 9.99999C8.8909 9.98927 9.00447 9.94564 9.09998 9.87401L12.529 7.30258C12.6088 7.2427 12.6736 7.16506 12.7183 7.07579C12.7629 6.98653 12.7861 6.8881 12.7861 6.7883C12.7861 6.6885 12.7629 6.59007 12.7183 6.5008C12.6736 6.41154 12.6088 6.33389 12.529 6.27401Z" fill="#D8D8D8"/>
<path d="M3.52515 15.1454H16.4286" stroke="#D8D8D8" stroke-linecap="round" stroke-linejoin="round"/>
</svg>
